<svg width="32" height="32" viewBox="0 0 32 32" fill="none" xmlns="http://www.w3.org/2000/svg">
<path fill-rule="evenodd" clip-rule="evenodd" d="M10.1306 5.98267C10.4866 4.236 12.0413 3 13.8213 3H18.1786C19.9586 3 21.512 4.236 21.8693 5.98267C21.9087 6.175 22.0116 6.34849 22.1616 6.47522C22.3115 6.60195 22.4997 6.67455 22.696 6.68133H22.74C24.6106 6.764 26.048 6.99333 27.248 7.78133C28.004 8.27733 28.6546 8.91467 29.1613 9.66C29.792 10.5853 30.0693 11.6493 30.2026 12.9347C30.3333 14.192 30.3333 15.7667 30.3333 17.7613V17.8747C30.3333 19.8693 30.3333 21.4453 30.2026 22.7013C30.0693 23.9867 29.792 25.0507 29.1613 25.9773C28.653 26.7231 28.0029 27.3615 27.248 27.856C26.3106 28.4707 25.2346 28.7427 23.9306 28.872C22.6533 29 21.052 29 19.0173 29H12.9826C10.948 29 9.34663 29 8.06929 28.872C6.76529 28.7427 5.68929 28.472 4.75196 27.856C3.9969 27.3611 3.34675 26.7222 2.83863 25.976C2.20796 25.0507 1.93063 23.9867 1.79729 22.7013C1.66663 21.4453 1.66663 19.8693 1.66663 17.8747V17.7613C1.66663 15.7667 1.66663 14.192 1.79729 12.9347C1.93063 11.6493 2.20796 10.5853 2.83863 9.66C3.34675 8.91376 3.9969 8.27493 4.75196 7.78C5.95196 6.99333 7.38929 6.764 9.25996 6.68267L9.28263 6.68133H9.30396C9.50017 6.67455 9.68839 6.60195 9.83834 6.47522C9.98829 6.34849 10.0912 6.175 10.1306 5.98267ZM13.8213 5C12.968 5 12.252 5.59067 12.0906 6.38133C11.8306 7.66133 10.6946 8.66933 9.32796 8.68133C7.53063 8.76133 6.56796 8.98133 5.84796 9.45333C5.31313 9.8043 4.85242 10.2569 4.49196 10.7853C4.12396 11.3253 3.90263 12.0173 3.78529 13.1413C3.66796 14.2827 3.66663 15.7547 3.66663 17.8187C3.66663 19.8827 3.66663 21.3533 3.78663 22.4947C3.90263 23.6187 4.12396 24.3107 4.49329 24.852C4.85063 25.3773 5.31063 25.8307 5.84929 26.184C6.40529 26.548 7.11729 26.768 8.26796 26.8827C9.43329 26.9987 10.9346 27 13.0373 27H18.9626C21.064 27 22.5653 27 23.732 26.8827C24.8826 26.768 25.5946 26.5493 26.1506 26.184C26.6893 25.8307 27.1506 25.3773 27.508 24.8507C27.876 24.3107 28.0973 23.6187 28.2146 22.4947C28.332 21.3533 28.3333 19.8813 28.3333 17.8187C28.3333 15.7547 28.3333 14.2827 28.2133 13.1413C28.0973 12.0173 27.876 11.3253 27.5066 10.7853C27.1466 10.2562 26.6858 9.80309 26.1506 9.452C25.4333 8.98133 24.4706 8.76133 22.6706 8.68133C21.3053 8.668 20.1693 7.66267 19.9093 6.38133C19.824 5.98703 19.6052 5.63425 19.2899 5.38259C18.9745 5.13092 18.582 4.99578 18.1786 5H13.8213ZM16 14.3333C15.2043 14.3333 14.4412 14.6494 13.8786 15.212C13.316 15.7746 13 16.5377 13 17.3333C13 18.129 13.316 18.892 13.8786 19.4547C14.4412 20.0173 15.2043 20.3333 16 20.3333C16.7956 20.3333 17.5587 20.0173 18.1213 19.4547C18.6839 18.892 19 18.129 19 17.3333C19 16.5377 18.6839 15.7746 18.1213 15.212C17.5587 14.6494 16.7956 14.3333 16 14.3333ZM11 17.3333C11 16.0073 11.5267 14.7355 12.4644 13.7978C13.4021 12.8601 14.6739 12.3333 16 12.3333C17.326 12.3333 18.5978 12.8601 19.5355 13.7978C20.4732 14.7355 21 16.0073 21 17.3333C21 18.6594 20.4732 19.9312 19.5355 20.8689C18.5978 21.8065 17.326 22.3333 16 22.3333C14.6739 22.3333 13.4021 21.8065 12.4644 20.8689C11.5267 19.9312 11 18.6594 11 17.3333ZM23 13.3333C23 13.0681 23.1053 12.8138 23.2929 12.6262C23.4804 12.4387 23.7347 12.3333 24 12.3333H25.3333C25.5985 12.3333 25.8529 12.4387 26.0404 12.6262C26.2279 12.8138 26.3333 13.0681 26.3333 13.3333C26.3333 13.5986 26.2279 13.8529 26.0404 14.0404C25.8529 14.228 25.5985 14.3333 25.3333 14.3333H24C23.7347 14.3333 23.4804 14.228 23.2929 14.0404C23.1053 13.8529 23 13.5986 23 13.3333Z" fill="black"/>
</svg>
